<?xml version="1.0" standalone="no"?>
<!DOCTYPE svg PUBLIC "-//W3C//DTD SVG 20010904//EN"
 "http://www.w3.org/TR/2001/REC-SVG-20010904/DTD/svg10.dtd">
<svg version="1.0" xmlns="http://www.w3.org/2000/svg"
 width="700.000000pt" height="700.000000pt" viewBox="0 0 700.000000 700.000000"
 preserveAspectRatio="xMidYMid meet">
<metadata>
Created by potrace 1.14, written by Peter Selinger 2001-2017
</metadata>
<g transform="translate(0.000000,700.000000) scale(0.100000,-0.100000)"
fill="#000000" stroke="none">
<path d="M3175 6394 c-150 -19 -268 -41 -399 -74 -957 -245 -1734 -974 -2044
-1916 -27 -82 -73 -256 -86 -324 -3 -14 -7 -35 -10 -47 -2 -11 -8 -43 -12 -70
-3 -26 -8 -57 -10 -68 -20 -109 -27 -568 -10 -700 4 -38 10 -81 11 -95 23
-191 101 -482 188 -695 197 -486 536 -924 962 -1241 342 -255 761 -443 1162
-519 43 -8 89 -17 102 -20 12 -2 42 -6 65 -9 22 -3 70 -9 106 -13 131 -16 584
-9 700 12 24 4 171 30 234 41 51 10 74 22 81 45 10 30 -6 42 -123 88 -149 59
-280 133 -407 230 -60 46 -213 194 -272 264 -17 20 -38 37 -46 37 -22 0 -50
-37 -44 -60 3 -11 2 -20 -1 -20 -15 1 -168 223 -259 375 -60 100 -163 296
-163 309 0 3 19 6 43 6 51 0 104 30 118 68 6 15 8 50 4 82 -3 30 -8 73 -10 94
-10 91 -51 114 -198 112 l-107 -1 -25 75 c-30 94 -67 228 -94 345 -20 90 -25
115 -36 190 -3 23 -7 50 -9 61 -2 11 -7 47 -11 79 -3 33 -8 74 -10 91 -2 17
-7 67 -10 112 l-7 82 39 1 c21 0 192 0 381 1 309 0 345 -2 362 -17 24 -22 50
-13 77 27 32 47 145 164 231 238 39 34 72 68 72 73 0 6 -7 19 -16 29 -15 16
-17 68 -17 524 0 345 3 508 11 512 8 6 425 7 542 3 23 -1 28 -10 58 -109 64
-210 125 -493 131 -599 0 -13 10 -32 21 -43 18 -18 29 -19 157 -14 120 5 141
9 160 27 20 18 22 27 17 71 -6 48 -47 286 -58 331 -28 120 -39 164 -61 239
-14 49 -23 91 -20 94 2 3 255 6 560 6 l555 1 49 -100 c85 -174 145 -345 190
-535 28 -122 57 -311 57 -369 l-1 -33 -170 0 c-101 0 -175 -4 -182 -10 -24
-19 -13 -49 30 -86 23 -20 90 -85 149 -144 73 -73 115 -108 130 -108 36 0 46
-12 46 -59 1 -32 12 -63 44 -120 62 -109 95 -177 133 -278 30 -82 35 -88 63
-91 35 -4 36 -2 63 128 23 113 25 124 43 260 15 117 19 511 6 605 -5 33 -11
83 -14 110 -42 363 -186 772 -386 1106 -132 218 -255 375 -445 564 -291 292
-605 501 -975 648 -161 64 -393 135 -500 151 -19 3 -60 10 -90 16 -30 6 -75
13 -100 16 -25 2 -79 9 -120 13 -112 13 -481 10 -595 -5z m-171 -460 c-57 -76
-172 -241 -199 -286 -122 -205 -232 -412 -275 -520 l-24 -58 -508 0 c-279 0
-508 2 -508 5 0 12 140 167 228 253 344 335 771 567 1232 668 29 6 102 21 112
23 4 1 -22 -38 -58 -85z m1131 41 c286 -73 542 -188 790 -356 106 -71 119 -81
229 -173 110 -92 356 -348 356 -372 0 -2 -228 -4 -508 -4 l-508 0 -28 68 c-99
234 -288 554 -463 785 l-74 98 38 -7 c21 -3 97 -21 168 -39z m-812 -562 l0
-338 -211 -3 c-117 -1 -212 0 -212 4 0 21 206 394 242 439 4 5 45 63 90 127
45 64 84 115 87 113 2 -3 4 -156 4 -342z m417 271 c30 -41 60 -83 65 -92 6 -9
28 -44 51 -77 75 -110 244 -413 244 -438 0 -4 -94 -7 -210 -7 -193 0 -210 1
-211 18 -3 102 -3 672 1 672 3 0 30 -34 60 -76z m-1375 -976 c3 -3 -8 -53 -24
-111 -32 -115 -86 -354 -96 -427 -3 -25 -8 -52 -10 -60 -2 -8 -7 -46 -11 -85
-3 -38 -7 -72 -9 -75 -4 -6 -17 -173 -18 -232 -1 -35 -4 -38 -32 -38 -43 -1
-1133 -1 -1178 -1 l-38 1 6 53 c3 28 8 75 11 102 25 233 121 551 240 790 l45
90 554 -1 c306 0 558 -3 560 -6z m956 -28 c0 -19 1 -252 2 -517 l2 -483 -35
-1 c-48 0 -678 0 -713 0 l-28 1 6 82 c13 177 20 224 55 424 38 208 126 522
149 526 8 2 138 3 288 3 l273 0 1 -35z m-1133 -1365 c4 -4 8 -21 8 -38 2 -43
13 -184 19 -227 3 -19 7 -54 10 -77 23 -187 66 -398 116 -570 16 -57 28 -107
25 -111 -3 -5 -985 -8 -1101 -3 -23 1 -76 105 -152 298 -41 106 -105 319 -117
394 -3 19 -7 43 -10 54 -2 11 -7 40 -11 65 -3 25 -8 56 -10 70 -3 14 -7 53
-10 87 -5 58 -4 62 18 65 43 6 1209 0 1215 -7z m342 -1442 c36 -90 170 -347
240 -463 58 -95 215 -328 230 -340 3 -3 20 -24 38 -47 l32 -41 -32 5 c-112 17
-317 74 -448 125 -333 129 -624 317 -879 566 -99 97 -221 233 -221 245 0 4
229 7 508 7 l508 0 24 -57z"/>
<path d="M4599 3676 c-2 -2 -33 -6 -69 -9 -36 -3 -87 -11 -115 -17 -27 -7 -60
-14 -72 -16 -57 -11 -207 -71 -293 -116 -387 -205 -655 -587 -715 -1019 -12
-90 -13 -289 -1 -374 84 -599 547 -1062 1162 -1162 27 -4 123 -8 214 -8 146 0
179 4 283 29 172 41 290 92 444 191 l81 53 330 -328 c319 -318 331 -329 376
-335 26 -4 61 -5 78 -1 105 21 166 140 123 242 -9 23 -131 152 -335 356 l-320
320 54 82 c153 231 217 438 221 716 4 239 -30 403 -125 607 -105 222 -223 366
-453 549 -34 27 -192 114 -254 139 -74 30 -215 71 -270 80 -21 3 -50 8 -63 10
-29 6 -276 15 -281 11z m177 -360 c224 -16 445 -118 609 -280 106 -106 144
-158 204 -280 113 -229 136 -474 66 -721 -33 -119 -113 -273 -181 -351 -122
-138 -207 -206 -343 -274 -382 -191 -851 -114 -1151 189 -85 86 -98 102 -145
176 -63 98 -122 250 -139 355 -3 19 -8 49 -11 65 -9 51 -6 186 5 264 21 149
73 285 158 411 171 255 449 422 743 446 41 4 76 8 77 9 2 2 9 2 15 0 7 -2 48
-6 93 -9z"/>
</g>
</svg>
